<?xml version="1.0" encoding="utf-8" standalone="no"?>
<!DOCTYPE svg PUBLIC "-//W3C//DTD SVG 1.1//EN"
  "http://www.w3.org/Graphics/SVG/1.1/DTD/svg11.dtd">
<!-- Created with matplotlib (https://matplotlib.org/) -->
<svg height="345.6pt" version="1.1" viewBox="0 0 460.8 345.6" width="460.8pt" xmlns="http://www.w3.org/2000/svg" xmlns:xlink="http://www.w3.org/1999/xlink">
 <defs>
  <style type="text/css">
*{stroke-linecap:butt;stroke-linejoin:round;}
  </style>
 </defs>
 <g id="figure_1">
  <g id="patch_1">
   <path d="M 0 345.6 
L 460.8 345.6 
L 460.8 0 
L 0 0 
z
" style="fill:#ffffff;"/>
  </g>
  <g id="axes_1">
   <g id="patch_2">
    <path d="M 57.6 307.584 
L 414.72 307.584 
L 414.72 41.472 
L 57.6 41.472 
z
" style="fill:#ffffff;"/>
   </g>
   <g id="patch_3">
    <path clip-path="url(#p1565074bff)" d="M 383.730248 172.853806 
Q 300.469702 181.254692 217.394554 189.636872 
" style="fill:none;stroke:#808080;stroke-linecap:round;stroke-width:0.166667;"/>
    <path clip-path="url(#p1565074bff)" d="M 221.575125 191.225213 
L 217.394554 189.636872 
L 221.173569 187.24542 
L 221.575125 191.225213 
z
" style="fill:#808080;stroke:#808080;stroke-linecap:round;stroke-width:0.166667;"/>
   </g>
   <g id="patch_4">
    <path clip-path="url(#p1565074bff)" d="M 383.730248 172.853806 
Q 247.263346 156.592403 110.870456 140.339819 
" style="fill:none;stroke:#808080;stroke-linecap:round;stroke-width:0.066667;"/>
    <path clip-path="url(#p1565074bff)" d="M 114.605711 142.799061 
L 110.870456 140.339819 
L 115.079003 138.82716 
L 114.605711 142.799061 
z
" style="fill:#808080;stroke:#808080;stroke-linecap:round;stroke-width:0.066667;"/>
   </g>
   <g id="patch_5">
    <path clip-path="url(#p1565074bff)" d="M 153.269465 64.564364 
Q 170.637431 117.606007 187.889427 170.293475 
" style="fill:none;stroke:#808080;stroke-linecap:round;stroke-width:0.333333;"/>
    <path clip-path="url(#p1565074bff)" d="M 188.545396 165.869709 
L 187.889427 170.293475 
L 184.743996 167.114441 
L 188.545396 165.869709 
z
" style="fill:#808080;stroke:#808080;stroke-linecap:round;stroke-width:0.333333;"/>
   </g>
   <g id="patch_6">
    <path clip-path="url(#p1565074bff)" d="M 153.269465 64.564364 
Q 128.336549 92.751052 103.699935 120.602771 
" style="fill:none;stroke:#808080;stroke-linecap:round;stroke-width:0.4;"/>
    <path clip-path="url(#p1565074bff)" d="M 107.848175 118.931811 
L 103.699935 120.602771 
L 104.852112 116.281603 
L 107.848175 118.931811 
z
" style="fill:#808080;stroke:#808080;stroke-linecap:round;stroke-width:0.4;"/>
   </g>
   <g id="patch_7">
    <path clip-path="url(#p1565074bff)" d="M 153.269465 64.564364 
Q 137.714963 117.77702 122.223198 170.775051 
" style="fill:none;stroke:#808080;stroke-linecap:round;stroke-width:0.2;"/>
    <path clip-path="url(#p1565074bff)" d="M 125.265136 167.496849 
L 122.223198 170.775051 
L 121.425799 166.374579 
L 125.265136 167.496849 
z
" style="fill:#808080;stroke:#808080;stroke-linecap:round;stroke-width:0.2;"/>
   </g>
   <g id="patch_8">
    <path clip-path="url(#p1565074bff)" d="M 194.964291 191.900058 
Q 177.596324 138.858415 160.344329 86.170946 
" style="fill:none;stroke:#808080;stroke-linecap:round;stroke-width:0.333333;"/>
    <path clip-path="url(#p1565074bff)" d="M 159.68836 90.594712 
L 160.344329 86.170946 
L 163.48976 89.349981 
L 159.68836 90.594712 
z
" style="fill:#808080;stroke:#808080;stroke-linecap:round;stroke-width:0.333333;"/>
   </g>
   <g id="patch_9">
    <path clip-path="url(#p1565074bff)" d="M 194.964291 191.900058 
Q 154.61683 230.469051 114.511823 268.806276 
" style="fill:none;stroke:#808080;stroke-linecap:round;stroke-width:0.3;"/>
    <path clip-path="url(#p1565074bff)" d="M 118.785249 267.48801 
L 114.511823 268.806276 
L 116.021265 264.596575 
L 118.785249 267.48801 
z
" style="fill:#808080;stroke:#808080;stroke-linecap:round;stroke-width:0.3;"/>
   </g>
   <g id="patch_10">
    <path clip-path="url(#p1565074bff)" d="M 194.964291 191.900058 
Q 278.224837 183.499172 361.299985 175.116992 
" style="fill:none;stroke:#808080;stroke-linecap:round;stroke-width:0.166667;"/>
    <path clip-path="url(#p1565074bff)" d="M 357.119414 173.528651 
L 361.299985 175.116992 
L 357.52097 177.508444 
L 357.119414 173.528651 
z
" style="fill:#808080;stroke:#808080;stroke-linecap:round;stroke-width:0.166667;"/>
   </g>
   <g id="patch_11">
    <path clip-path="url(#p1565074bff)" d="M 194.964291 191.900058 
Q 166.606255 192.097685 140.856901 192.277132 
" style="fill:none;stroke:#808080;stroke-linecap:round;stroke-width:2.333333;"/>
    <path clip-path="url(#p1565074bff)" d="M 144.870742 194.249208 
L 140.856901 192.277132 
L 144.842867 190.249305 
L 144.870742 194.249208 
z
" style="fill:#808080;stroke:#808080;stroke-linecap:round;stroke-width:2.333333;"/>
   </g>
   <g id="patch_12">
    <path clip-path="url(#p1565074bff)" d="M 115.887095 192.451146 
Q 144.245131 192.253519 169.994485 192.074072 
" style="fill:none;stroke:#808080;stroke-linecap:round;stroke-width:2.333333;"/>
    <path clip-path="url(#p1565074bff)" d="M 165.980644 190.101996 
L 169.994485 192.074072 
L 166.00852 194.101899 
L 165.980644 190.101996 
z
" style="fill:#808080;stroke:#808080;stroke-linecap:round;stroke-width:2.333333;"/>
   </g>
   <g id="patch_13">
    <path clip-path="url(#p1565074bff)" d="M 115.887095 192.451146 
Q 107.225887 175.074278 99.828167 160.232331 
" style="fill:none;stroke:#808080;stroke-linecap:round;stroke-width:2.533333;"/>
    <path clip-path="url(#p1565074bff)" d="M 99.822558 164.704463 
L 99.828167 160.232331 
L 103.402507 162.920098 
L 99.822558 164.704463 
z
" style="fill:#808080;stroke:#808080;stroke-linecap:round;stroke-width:2.533333;"/>
   </g>
   <g id="patch_14">
    <path clip-path="url(#p1565074bff)" d="M 115.887095 192.451146 
Q 131.441597 139.238489 146.933362 86.240458 
" style="fill:none;stroke:#808080;stroke-linecap:round;stroke-width:0.2;"/>
    <path clip-path="url(#p1565074bff)" d="M 143.891423 89.51866 
L 146.933362 86.240458 
L 147.73076 90.64093 
L 143.891423 89.51866 
z
" style="fill:#808080;stroke:#808080;stroke-linecap:round;stroke-width:0.2;"/>
   </g>
   <g id="patch_15">
    <path clip-path="url(#p1565074bff)" d="M 115.887095 192.451146 
Q 109.11637 227.49299 102.543606 261.510285 
" style="fill:none;stroke:#808080;stroke-linecap:round;stroke-width:0.933333;"/>
    <path clip-path="url(#p1565074bff)" d="M 105.266125 257.962343 
L 102.543606 261.510285 
L 101.338764 257.203505 
L 105.266125 257.962343 
z
" style="fill:#808080;stroke:#808080;stroke-linecap:round;stroke-width:0.933333;"/>
   </g>
   <g id="patch_16">
    <path clip-path="url(#p1565074bff)" d="M 88.589752 137.684849 
Q 113.522668 109.49816 138.159282 81.646442 
" style="fill:none;stroke:#808080;stroke-linecap:round;stroke-width:0.4;"/>
    <path clip-path="url(#p1565074bff)" d="M 134.011042 83.317401 
L 138.159282 81.646442 
L 137.007105 85.967609 
L 134.011042 83.317401 
z
" style="fill:#808080;stroke:#808080;stroke-linecap:round;stroke-width:0.4;"/>
   </g>
   <g id="patch_17">
    <path clip-path="url(#p1565074bff)" d="M 88.589752 137.684849 
Q 225.056654 153.946252 361.449544 170.198836 
" style="fill:none;stroke:#808080;stroke-linecap:round;stroke-width:0.066667;"/>
    <path clip-path="url(#p1565074bff)" d="M 357.714289 167.739594 
L 361.449544 170.198836 
L 357.240997 171.711494 
L 357.714289 167.739594 
z
" style="fill:#808080;stroke:#808080;stroke-linecap:round;stroke-width:0.066667;"/>
   </g>
   <g id="patch_18">
    <path clip-path="url(#p1565074bff)" d="M 88.589752 137.684849 
Q 97.25096 155.061716 104.64868 169.903664 
" style="fill:none;stroke:#808080;stroke-linecap:round;stroke-width:2.533333;"/>
    <path clip-path="url(#p1565074bff)" d="M 104.654289 165.431531 
L 104.64868 169.903664 
L 101.07434 167.215897 
L 104.654289 165.431531 
z
" style="fill:#808080;stroke:#808080;stroke-linecap:round;stroke-width:2.533333;"/>
   </g>
   <g id="patch_19">
    <path clip-path="url(#p1565074bff)" d="M 98.103189 284.491636 
Q 138.45065 245.922644 178.555658 207.585418 
" style="fill:none;stroke:#808080;stroke-linecap:round;stroke-width:0.3;"/>
    <path clip-path="url(#p1565074bff)" d="M 174.282231 208.903685 
L 178.555658 207.585418 
L 177.046215 211.795119 
L 174.282231 208.903685 
z
" style="fill:#808080;stroke:#808080;stroke-linecap:round;stroke-width:0.3;"/>
   </g>
   <g id="patch_20">
    <path clip-path="url(#p1565074bff)" d="M 98.103189 284.491636 
Q 104.873914 249.449793 111.446678 215.432497 
" style="fill:none;stroke:#808080;stroke-linecap:round;stroke-width:0.933333;"/>
    <path clip-path="url(#p1565074bff)" d="M 108.724159 218.980439 
L 111.446678 215.432497 
L 112.65152 219.739277 
L 108.724159 218.980439 
z
" style="fill:#808080;stroke:#808080;stroke-linecap:round;stroke-width:0.933333;"/>
   </g>
   <g id="matplotlib.axis_1">
    <g id="xtick_1"/>
    <g id="xtick_2"/>
    <g id="xtick_3"/>
    <g id="xtick_4"/>
    <g id="xtick_5"/>
    <g id="xtick_6"/>
    <g id="xtick_7"/>
    <g id="xtick_8"/>
   </g>
   <g id="matplotlib.axis_2">
    <g id="ytick_1"/>
    <g id="ytick_2"/>
    <g id="ytick_3"/>
    <g id="ytick_4"/>
    <g id="ytick_5"/>
    <g id="ytick_6"/>
    <g id="ytick_7"/>
   </g>
   <g id="PathCollection_1">
    <defs>
     <path d="M 0 22.36068 
C 5.930122 22.36068 11.618159 20.004617 15.811388 15.811388 
C 20.004617 11.618159 22.36068 5.930122 22.36068 0 
C 22.36068 -5.930122 20.004617 -11.618159 15.811388 -15.811388 
C 11.618159 -20.004617 5.930122 -22.36068 0 -22.36068 
C -5.930122 -22.36068 -11.618159 -20.004617 -15.811388 -15.811388 
C -20.004617 -11.618159 -22.36068 -5.930122 -22.36068 0 
C -22.36068 5.930122 -20.004617 11.618159 -15.811388 15.811388 
C -11.618159 20.004617 -5.930122 22.36068 0 22.36068 
z
" id="C0_0_795c2b126f"/>
    </defs>
    <g clip-path="url(#p1565074bff)">
     <use style="fill:#008000;stroke:#008000;" x="383.730248" xlink:href="#C0_0_795c2b126f" y="172.853806"/>
    </g>
    <g clip-path="url(#p1565074bff)">
     <use style="fill:#008000;stroke:#008000;" x="153.269465" xlink:href="#C0_0_795c2b126f" y="64.564364"/>
    </g>
    <g clip-path="url(#p1565074bff)">
     <use style="fill:#0000ff;stroke:#0000ff;" x="194.964291" xlink:href="#C0_0_795c2b126f" y="191.900058"/>
    </g>
    <g clip-path="url(#p1565074bff)">
     <use style="fill:#ff0000;stroke:#ff0000;" x="115.887095" xlink:href="#C0_0_795c2b126f" y="192.451146"/>
    </g>
    <g clip-path="url(#p1565074bff)">
     <use style="fill:#0000ff;stroke:#0000ff;" x="88.589752" xlink:href="#C0_0_795c2b126f" y="137.684849"/>
    </g>
    <g clip-path="url(#p1565074bff)">
     <use style="fill:#008000;stroke:#008000;" x="98.103189" xlink:href="#C0_0_795c2b126f" y="284.491636"/>
    </g>
   </g>
   <g id="patch_21">
    <path d="M 57.6 307.584 
L 57.6 41.472 
" style="fill:none;stroke:#000000;stroke-linecap:square;stroke-linejoin:miter;stroke-width:0.8;"/>
   </g>
   <g id="patch_22">
    <path d="M 414.72 307.584 
L 414.72 41.472 
" style="fill:none;stroke:#000000;stroke-linecap:square;stroke-linejoin:miter;stroke-width:0.8;"/>
   </g>
   <g id="patch_23">
    <path d="M 57.6 307.584 
L 414.72 307.584 
" style="fill:none;stroke:#000000;stroke-linecap:square;stroke-linejoin:miter;stroke-width:0.8;"/>
   </g>
   <g id="patch_24">
    <path d="M 57.6 41.472 
L 414.72 41.472 
" style="fill:none;stroke:#000000;stroke-linecap:square;stroke-linejoin:miter;stroke-width:0.8;"/>
   </g>
   <g id="text_1">
    <g clip-path="url(#p1565074bff)">
     <!-- CEFAS -->
     <defs>
      <path d="M 64.40625 67.28125 
L 64.40625 56.890625 
Q 59.421875 61.53125 53.78125 63.8125 
Q 48.140625 66.109375 41.796875 66.109375 
Q 29.296875 66.109375 22.65625 58.46875 
Q 16.015625 50.828125 16.015625 36.375 
Q 16.015625 21.96875 22.65625 14.328125 
Q 29.296875 6.6875 41.796875 6.6875 
Q 48.140625 6.6875 53.78125 8.984375 
Q 59.421875 11.28125 64.40625 15.921875 
L 64.40625 5.609375 
Q 59.234375 2.09375 53.4375 0.328125 
Q 47.65625 -1.421875 41.21875 -1.421875 
Q 24.65625 -1.421875 15.125 8.703125 
Q 5.609375 18.84375 5.609375 36.375 
Q 5.609375 53.953125 15.125 64.078125 
Q 24.65625 74.21875 41.21875 74.21875 
Q 47.75 74.21875 53.53125 72.484375 
Q 59.328125 70.75 64.40625 67.28125 
z
" id="DejaVuSans-67"/>
      <path d="M 9.8125 72.90625 
L 55.90625 72.90625 
L 55.90625 64.59375 
L 19.671875 64.59375 
L 19.671875 43.015625 
L 54.390625 43.015625 
L 54.390625 34.71875 
L 19.671875 34.71875 
L 19.671875 8.296875 
L 56.78125 8.296875 
L 56.78125 0 
L 9.8125 0 
z
" id="DejaVuSans-69"/>
      <path d="M 9.8125 72.90625 
L 51.703125 72.90625 
L 51.703125 64.59375 
L 19.671875 64.59375 
L 19.671875 43.109375 
L 48.578125 43.109375 
L 48.578125 34.8125 
L 19.671875 34.8125 
L 19.671875 0 
L 9.8125 0 
z
" id="DejaVuSans-70"/>
      <path d="M 34.1875 63.1875 
L 20.796875 26.90625 
L 47.609375 26.90625 
z
M 28.609375 72.90625 
L 39.796875 72.90625 
L 67.578125 0 
L 57.328125 0 
L 50.6875 18.703125 
L 17.828125 18.703125 
L 11.1875 0 
L 0.78125 0 
z
" id="DejaVuSans-65"/>
      <path d="M 53.515625 70.515625 
L 53.515625 60.890625 
Q 47.90625 63.578125 42.921875 64.890625 
Q 37.9375 66.21875 33.296875 66.21875 
Q 25.25 66.21875 20.875 63.09375 
Q 16.5 59.96875 16.5 54.203125 
Q 16.5 49.359375 19.40625 46.890625 
Q 22.3125 44.4375 30.421875 42.921875 
L 36.375 41.703125 
Q 47.40625 39.59375 52.65625 34.296875 
Q 57.90625 29 57.90625 20.125 
Q 57.90625 9.515625 50.796875 4.046875 
Q 43.703125 -1.421875 29.984375 -1.421875 
Q 24.8125 -1.421875 18.96875 -0.25 
Q 13.140625 0.921875 6.890625 3.21875 
L 6.890625 13.375 
Q 12.890625 10.015625 18.65625 8.296875 
Q 24.421875 6.59375 29.984375 6.59375 
Q 38.421875 6.59375 43.015625 9.90625 
Q 47.609375 13.234375 47.609375 19.390625 
Q 47.609375 24.75 44.3125 27.78125 
Q 41.015625 30.8125 33.5 32.328125 
L 27.484375 33.5 
Q 16.453125 35.6875 11.515625 40.375 
Q 6.59375 45.0625 6.59375 53.421875 
Q 6.59375 63.09375 13.40625 68.65625 
Q 20.21875 74.21875 32.171875 74.21875 
Q 37.3125 74.21875 42.625 73.28125 
Q 47.953125 72.359375 53.515625 70.515625 
z
" id="DejaVuSans-83"/>
     </defs>
     <g transform="translate(364.393373 176.165056)scale(0.12 -0.12)">
      <use xlink:href="#DejaVuSans-67"/>
      <use x="69.824219" xlink:href="#DejaVuSans-69"/>
      <use x="133.007812" xlink:href="#DejaVuSans-70"/>
      <use x="190.386719" xlink:href="#DejaVuSans-65"/>
      <use x="258.794922" xlink:href="#DejaVuSans-83"/>
     </g>
    </g>
   </g>
   <g id="text_2">
    <g clip-path="url(#p1565074bff)">
     <!-- CEH -->
     <defs>
      <path d="M 9.8125 72.90625 
L 19.671875 72.90625 
L 19.671875 43.015625 
L 55.515625 43.015625 
L 55.515625 72.90625 
L 65.375 72.90625 
L 65.375 0 
L 55.515625 0 
L 55.515625 34.71875 
L 19.671875 34.71875 
L 19.671875 0 
L 9.8125 0 
z
" id="DejaVuSans-72"/>
     </defs>
     <g transform="translate(140.77634 67.875614)scale(0.12 -0.12)">
      <use xlink:href="#DejaVuSans-67"/>
      <use x="69.824219" xlink:href="#DejaVuSans-69"/>
      <use x="133.007812" xlink:href="#DejaVuSans-72"/>
     </g>
    </g>
   </g>
   <g id="text_3">
    <g clip-path="url(#p1565074bff)">
     <!-- ICL -->
     <defs>
      <path d="M 9.8125 72.90625 
L 19.671875 72.90625 
L 19.671875 0 
L 9.8125 0 
z
" id="DejaVuSans-73"/>
      <path d="M 9.8125 72.90625 
L 19.671875 72.90625 
L 19.671875 8.296875 
L 55.171875 8.296875 
L 55.171875 0 
L 9.8125 0 
z
" id="DejaVuSans-76"/>
     </defs>
     <g transform="translate(185.661479 195.211308)scale(0.12 -0.12)">
      <use xlink:href="#DejaVuSans-73"/>
      <use x="29.492188" xlink:href="#DejaVuSans-67"/>
      <use x="99.316406" xlink:href="#DejaVuSans-76"/>
     </g>
    </g>
   </g>
   <g id="text_4">
    <g clip-path="url(#p1565074bff)">
     <!-- NonAc -->
     <defs>
      <path d="M 9.8125 72.90625 
L 23.09375 72.90625 
L 55.421875 11.921875 
L 55.421875 72.90625 
L 64.984375 72.90625 
L 64.984375 0 
L 51.703125 0 
L 19.390625 60.984375 
L 19.390625 0 
L 9.8125 0 
z
" id="DejaVuSans-78"/>
      <path d="M 30.609375 48.390625 
Q 23.390625 48.390625 19.1875 42.75 
Q 14.984375 37.109375 14.984375 27.296875 
Q 14.984375 17.484375 19.15625 11.84375 
Q 23.34375 6.203125 30.609375 6.203125 
Q 37.796875 6.203125 41.984375 11.859375 
Q 46.1875 17.53125 46.1875 27.296875 
Q 46.1875 37.015625 41.984375 42.703125 
Q 37.796875 48.390625 30.609375 48.390625 
z
M 30.609375 56 
Q 42.328125 56 49.015625 48.375 
Q 55.71875 40.765625 55.71875 27.296875 
Q 55.71875 13.875 49.015625 6.21875 
Q 42.328125 -1.421875 30.609375 -1.421875 
Q 18.84375 -1.421875 12.171875 6.21875 
Q 5.515625 13.875 5.515625 27.296875 
Q 5.515625 40.765625 12.171875 48.375 
Q 18.84375 56 30.609375 56 
z
" id="DejaVuSans-111"/>
      <path d="M 54.890625 33.015625 
L 54.890625 0 
L 45.90625 0 
L 45.90625 32.71875 
Q 45.90625 40.484375 42.875 44.328125 
Q 39.84375 48.1875 33.796875 48.1875 
Q 26.515625 48.1875 22.3125 43.546875 
Q 18.109375 38.921875 18.109375 30.90625 
L 18.109375 0 
L 9.078125 0 
L 9.078125 54.6875 
L 18.109375 54.6875 
L 18.109375 46.1875 
Q 21.34375 51.125 25.703125 53.5625 
Q 30.078125 56 35.796875 56 
Q 45.21875 56 50.046875 50.171875 
Q 54.890625 44.34375 54.890625 33.015625 
z
" id="DejaVuSans-110"/>
      <path d="M 48.78125 52.59375 
L 48.78125 44.1875 
Q 44.96875 46.296875 41.140625 47.34375 
Q 37.3125 48.390625 33.40625 48.390625 
Q 24.65625 48.390625 19.8125 42.84375 
Q 14.984375 37.3125 14.984375 27.296875 
Q 14.984375 17.28125 19.8125 11.734375 
Q 24.65625 6.203125 33.40625 6.203125 
Q 37.3125 6.203125 41.140625 7.25 
Q 44.96875 8.296875 48.78125 10.40625 
L 48.78125 2.09375 
Q 45.015625 0.34375 40.984375 -0.53125 
Q 36.96875 -1.421875 32.421875 -1.421875 
Q 20.0625 -1.421875 12.78125 6.34375 
Q 5.515625 14.109375 5.515625 27.296875 
Q 5.515625 40.671875 12.859375 48.328125 
Q 20.21875 56 33.015625 56 
Q 37.15625 56 41.109375 55.140625 
Q 45.0625 54.296875 48.78125 52.59375 
z
" id="DejaVuSans-99"/>
     </defs>
     <g transform="translate(96.522095 195.762396)scale(0.12 -0.12)">
      <use xlink:href="#DejaVuSans-78"/>
      <use x="74.804688" xlink:href="#DejaVuSans-111"/>
      <use x="135.986328" xlink:href="#DejaVuSans-110"/>
      <use x="199.365234" xlink:href="#DejaVuSans-65"/>
      <use x="267.757812" xlink:href="#DejaVuSans-99"/>
     </g>
    </g>
   </g>
   <g id="text_5">
    <g clip-path="url(#p1565074bff)">
     <!-- UoR -->
     <defs>
      <path d="M 8.6875 72.90625 
L 18.609375 72.90625 
L 18.609375 28.609375 
Q 18.609375 16.890625 22.84375 11.734375 
Q 27.09375 6.59375 36.625 6.59375 
Q 46.09375 6.59375 50.34375 11.734375 
Q 54.59375 16.890625 54.59375 28.609375 
L 54.59375 72.90625 
L 64.5 72.90625 
L 64.5 27.390625 
Q 64.5 13.140625 57.4375 5.859375 
Q 50.390625 -1.421875 36.625 -1.421875 
Q 22.796875 -1.421875 15.734375 5.859375 
Q 8.6875 13.140625 8.6875 27.390625 
z
" id="DejaVuSans-85"/>
      <path d="M 44.390625 34.1875 
Q 47.5625 33.109375 50.5625 29.59375 
Q 53.5625 26.078125 56.59375 19.921875 
L 66.609375 0 
L 56 0 
L 46.6875 18.703125 
Q 43.0625 26.03125 39.671875 28.421875 
Q 36.28125 30.8125 30.421875 30.8125 
L 19.671875 30.8125 
L 19.671875 0 
L 9.8125 0 
L 9.8125 72.90625 
L 32.078125 72.90625 
Q 44.578125 72.90625 50.734375 67.671875 
Q 56.890625 62.453125 56.890625 51.90625 
Q 56.890625 45.015625 53.6875 40.46875 
Q 50.484375 35.9375 44.390625 34.1875 
z
M 19.671875 64.796875 
L 19.671875 38.921875 
L 32.078125 38.921875 
Q 39.203125 38.921875 42.84375 42.21875 
Q 46.484375 45.515625 46.484375 51.90625 
Q 46.484375 58.296875 42.84375 61.546875 
Q 39.203125 64.796875 32.078125 64.796875 
z
" id="DejaVuSans-82"/>
     </defs>
     <g transform="translate(76.35819 140.996099)scale(0.12 -0.12)">
      <use xlink:href="#DejaVuSans-85"/>
      <use x="73.193359" xlink:href="#DejaVuSans-111"/>
      <use x="134.375" xlink:href="#DejaVuSans-82"/>
     </g>
    </g>
   </g>
   <g id="text_6">
    <g clip-path="url(#p1565074bff)">
     <!-- ZSL -->
     <defs>
      <path d="M 5.609375 72.90625 
L 62.890625 72.90625 
L 62.890625 65.375 
L 16.796875 8.296875 
L 64.015625 8.296875 
L 64.015625 0 
L 4.5 0 
L 4.5 7.515625 
L 50.59375 64.59375 
L 5.609375 64.59375 
z
" id="DejaVuSans-90"/>
     </defs>
     <g transform="translate(86.841001 287.802886)scale(0.12 -0.12)">
      <use xlink:href="#DejaVuSans-90"/>
      <use x="68.505859" xlink:href="#DejaVuSans-83"/>
      <use x="131.982422" xlink:href="#DejaVuSans-76"/>
     </g>
    </g>
   </g>
   <g id="legend_1">
    <g id="patch_25">
     <path d="M 273.979375 93.506375 
L 407.72 93.506375 
Q 409.72 93.506375 409.72 91.506375 
L 409.72 48.472 
Q 409.72 46.472 407.72 46.472 
L 273.979375 46.472 
Q 271.979375 46.472 271.979375 48.472 
L 271.979375 91.506375 
Q 271.979375 93.506375 273.979375 93.506375 
z
" style="fill:#ffffff;opacity:0.8;stroke:#cccccc;stroke-linejoin:miter;"/>
    </g>
    <g id="line2d_1">
     <path d="M 275.979375 54.570438 
L 295.979375 54.570438 
" style="fill:none;stroke:#ffffff;stroke-linecap:square;stroke-width:1.5;"/>
    </g>
    <g id="line2d_2">
     <defs>
      <path d="M 0 7.5 
C 1.989023 7.5 3.896849 6.709753 5.303301 5.303301 
C 6.709753 3.896849 7.5 1.989023 7.5 0 
C 7.5 -1.989023 6.709753 -3.896849 5.303301 -5.303301 
C 3.896849 -6.709753 1.989023 -7.5 0 -7.5 
C -1.989023 -7.5 -3.896849 -6.709753 -5.303301 -5.303301 
C -6.709753 -3.896849 -7.5 -1.989023 -7.5 0 
C -7.5 1.989023 -6.709753 3.896849 -5.303301 5.303301 
C -3.896849 6.709753 -1.989023 7.5 0 7.5 
z
" id="m8437c122bf" style="stroke:#ffffff;"/>
     </defs>
     <g>
      <use style="fill:#008000;stroke:#ffffff;" x="285.979375" xlink:href="#m8437c122bf" y="54.570438"/>
     </g>
    </g>
    <g id="text_7">
     <!-- Hosting Partner -->
     <defs>
      <path d="M 44.28125 53.078125 
L 44.28125 44.578125 
Q 40.484375 46.53125 36.375 47.5 
Q 32.28125 48.484375 27.875 48.484375 
Q 21.1875 48.484375 17.84375 46.4375 
Q 14.5 44.390625 14.5 40.28125 
Q 14.5 37.15625 16.890625 35.375 
Q 19.28125 33.59375 26.515625 31.984375 
L 29.59375 31.296875 
Q 39.15625 29.25 43.1875 25.515625 
Q 47.21875 21.78125 47.21875 15.09375 
Q 47.21875 7.46875 41.1875 3.015625 
Q 35.15625 -1.421875 24.609375 -1.421875 
Q 20.21875 -1.421875 15.453125 -0.5625 
Q 10.6875 0.296875 5.421875 2 
L 5.421875 11.28125 
Q 10.40625 8.6875 15.234375 7.390625 
Q 20.0625 6.109375 24.8125 6.109375 
Q 31.15625 6.109375 34.5625 8.28125 
Q 37.984375 10.453125 37.984375 14.40625 
Q 37.984375 18.0625 35.515625 20.015625 
Q 33.0625 21.96875 24.703125 23.78125 
L 21.578125 24.515625 
Q 13.234375 26.265625 9.515625 29.90625 
Q 5.8125 33.546875 5.8125 39.890625 
Q 5.8125 47.609375 11.28125 51.796875 
Q 16.75 56 26.8125 56 
Q 31.78125 56 36.171875 55.265625 
Q 40.578125 54.546875 44.28125 53.078125 
z
" id="DejaVuSans-115"/>
      <path d="M 18.3125 70.21875 
L 18.3125 54.6875 
L 36.8125 54.6875 
L 36.8125 47.703125 
L 18.3125 47.703125 
L 18.3125 18.015625 
Q 18.3125 11.328125 20.140625 9.421875 
Q 21.96875 7.515625 27.59375 7.515625 
L 36.8125 7.515625 
L 36.8125 0 
L 27.59375 0 
Q 17.1875 0 13.234375 3.875 
Q 9.28125 7.765625 9.28125 18.015625 
L 9.28125 47.703125 
L 2.6875 47.703125 
L 2.6875 54.6875 
L 9.28125 54.6875 
L 9.28125 70.21875 
z
" id="DejaVuSans-116"/>
      <path d="M 9.421875 54.6875 
L 18.40625 54.6875 
L 18.40625 0 
L 9.421875 0 
z
M 9.421875 75.984375 
L 18.40625 75.984375 
L 18.40625 64.59375 
L 9.421875 64.59375 
z
" id="DejaVuSans-105"/>
      <path d="M 45.40625 27.984375 
Q 45.40625 37.75 41.375 43.109375 
Q 37.359375 48.484375 30.078125 48.484375 
Q 22.859375 48.484375 18.828125 43.109375 
Q 14.796875 37.75 14.796875 27.984375 
Q 14.796875 18.265625 18.828125 12.890625 
Q 22.859375 7.515625 30.078125 7.515625 
Q 37.359375 7.515625 41.375 12.890625 
Q 45.40625 18.265625 45.40625 27.984375 
z
M 54.390625 6.78125 
Q 54.390625 -7.171875 48.1875 -13.984375 
Q 42 -20.796875 29.203125 -20.796875 
Q 24.46875 -20.796875 20.265625 -20.09375 
Q 16.0625 -19.390625 12.109375 -17.921875 
L 12.109375 -9.1875 
Q 16.0625 -11.328125 19.921875 -12.34375 
Q 23.78125 -13.375 27.78125 -13.375 
Q 36.625 -13.375 41.015625 -8.765625 
Q 45.40625 -4.15625 45.40625 5.171875 
L 45.40625 9.625 
Q 42.625 4.78125 38.28125 2.390625 
Q 33.9375 0 27.875 0 
Q 17.828125 0 11.671875 7.65625 
Q 5.515625 15.328125 5.515625 27.984375 
Q 5.515625 40.671875 11.671875 48.328125 
Q 17.828125 56 27.875 56 
Q 33.9375 56 38.28125 53.609375 
Q 42.625 51.21875 45.40625 46.390625 
L 45.40625 54.6875 
L 54.390625 54.6875 
z
" id="DejaVuSans-103"/>
      <path id="DejaVuSans-32"/>
      <path d="M 19.671875 64.796875 
L 19.671875 37.40625 
L 32.078125 37.40625 
Q 38.96875 37.40625 42.71875 40.96875 
Q 46.484375 44.53125 46.484375 51.125 
Q 46.484375 57.671875 42.71875 61.234375 
Q 38.96875 64.796875 32.078125 64.796875 
z
M 9.8125 72.90625 
L 32.078125 72.90625 
Q 44.34375 72.90625 50.609375 67.359375 
Q 56.890625 61.8125 56.890625 51.125 
Q 56.890625 40.328125 50.609375 34.8125 
Q 44.34375 29.296875 32.078125 29.296875 
L 19.671875 29.296875 
L 19.671875 0 
L 9.8125 0 
z
" id="DejaVuSans-80"/>
      <path d="M 34.28125 27.484375 
Q 23.390625 27.484375 19.1875 25 
Q 14.984375 22.515625 14.984375 16.5 
Q 14.984375 11.71875 18.140625 8.90625 
Q 21.296875 6.109375 26.703125 6.109375 
Q 34.1875 6.109375 38.703125 11.40625 
Q 43.21875 16.703125 43.21875 25.484375 
L 43.21875 27.484375 
z
M 52.203125 31.203125 
L 52.203125 0 
L 43.21875 0 
L 43.21875 8.296875 
Q 40.140625 3.328125 35.546875 0.953125 
Q 30.953125 -1.421875 24.3125 -1.421875 
Q 15.921875 -1.421875 10.953125 3.296875 
Q 6 8.015625 6 15.921875 
Q 6 25.140625 12.171875 29.828125 
Q 18.359375 34.515625 30.609375 34.515625 
L 43.21875 34.515625 
L 43.21875 35.40625 
Q 43.21875 41.609375 39.140625 45 
Q 35.0625 48.390625 27.6875 48.390625 
Q 23 48.390625 18.546875 47.265625 
Q 14.109375 46.140625 10.015625 43.890625 
L 10.015625 52.203125 
Q 14.9375 54.109375 19.578125 55.046875 
Q 24.21875 56 28.609375 56 
Q 40.484375 56 46.34375 49.84375 
Q 52.203125 43.703125 52.203125 31.203125 
z
" id="DejaVuSans-97"/>
      <path d="M 41.109375 46.296875 
Q 39.59375 47.171875 37.8125 47.578125 
Q 36.03125 48 33.890625 48 
Q 26.265625 48 22.1875 43.046875 
Q 18.109375 38.09375 18.109375 28.8125 
L 18.109375 0 
L 9.078125 0 
L 9.078125 54.6875 
L 18.109375 54.6875 
L 18.109375 46.1875 
Q 20.953125 51.171875 25.484375 53.578125 
Q 30.03125 56 36.53125 56 
Q 37.453125 56 38.578125 55.875 
Q 39.703125 55.765625 41.0625 55.515625 
z
" id="DejaVuSans-114"/>
      <path d="M 56.203125 29.59375 
L 56.203125 25.203125 
L 14.890625 25.203125 
Q 15.484375 15.921875 20.484375 11.0625 
Q 25.484375 6.203125 34.421875 6.203125 
Q 39.59375 6.203125 44.453125 7.46875 
Q 49.3125 8.734375 54.109375 11.28125 
L 54.109375 2.78125 
Q 49.265625 0.734375 44.1875 -0.34375 
Q 39.109375 -1.421875 33.890625 -1.421875 
Q 20.796875 -1.421875 13.15625 6.1875 
Q 5.515625 13.8125 5.515625 26.8125 
Q 5.515625 40.234375 12.765625 48.109375 
Q 20.015625 56 32.328125 56 
Q 43.359375 56 49.78125 48.890625 
Q 56.203125 41.796875 56.203125 29.59375 
z
M 47.21875 32.234375 
Q 47.125 39.59375 43.09375 43.984375 
Q 39.0625 48.390625 32.421875 48.390625 
Q 24.90625 48.390625 20.390625 44.140625 
Q 15.875 39.890625 15.1875 32.171875 
z
" id="DejaVuSans-101"/>
     </defs>
     <g transform="translate(303.979375 58.070438)scale(0.1 -0.1)">
      <use xlink:href="#DejaVuSans-72"/>
      <use x="75.195312" xlink:href="#DejaVuSans-111"/>
      <use x="136.376953" xlink:href="#DejaVuSans-115"/>
      <use x="188.476562" xlink:href="#DejaVuSans-116"/>
      <use x="227.685547" xlink:href="#DejaVuSans-105"/>
      <use x="255.46875" xlink:href="#DejaVuSans-110"/>
      <use x="318.847656" xlink:href="#DejaVuSans-103"/>
      <use x="382.324219" xlink:href="#DejaVuSans-32"/>
      <use x="414.111328" xlink:href="#DejaVuSans-80"/>
      <use x="474.351562" xlink:href="#DejaVuSans-97"/>
      <use x="535.630859" xlink:href="#DejaVuSans-114"/>
      <use x="576.744141" xlink:href="#DejaVuSans-116"/>
      <use x="615.953125" xlink:href="#DejaVuSans-110"/>
      <use x="679.332031" xlink:href="#DejaVuSans-101"/>
      <use x="740.855469" xlink:href="#DejaVuSans-114"/>
     </g>
    </g>
    <g id="line2d_3">
     <path d="M 275.979375 69.248563 
L 295.979375 69.248563 
" style="fill:none;stroke:#ffffff;stroke-linecap:square;stroke-width:1.5;"/>
    </g>
    <g id="line2d_4">
     <defs>
      <path d="M 0 7.5 
C 1.989023 7.5 3.896849 6.709753 5.303301 5.303301 
C 6.709753 3.896849 7.5 1.989023 7.5 0 
C 7.5 -1.989023 6.709753 -3.896849 5.303301 -5.303301 
C 3.896849 -6.709753 1.989023 -7.5 0 -7.5 
C -1.989023 -7.5 -3.896849 -6.709753 -5.303301 -5.303301 
C -6.709753 -3.896849 -7.5 -1.989023 -7.5 0 
C -7.5 1.989023 -6.709753 3.896849 -5.303301 5.303301 
C -3.896849 6.709753 -1.989023 7.5 0 7.5 
z
" id="mc29e0c0dcb" style="stroke:#ffffff;"/>
     </defs>
     <g>
      <use style="fill:#ff0000;stroke:#ffffff;" x="285.979375" xlink:href="#mc29e0c0dcb" y="69.248563"/>
     </g>
    </g>
    <g id="text_8">
     <!-- Non-Hosting Partner -->
     <defs>
      <path d="M 4.890625 31.390625 
L 31.203125 31.390625 
L 31.203125 23.390625 
L 4.890625 23.390625 
z
" id="DejaVuSans-45"/>
     </defs>
     <g transform="translate(303.979375 72.748563)scale(0.1 -0.1)">
      <use xlink:href="#DejaVuSans-78"/>
      <use x="74.804688" xlink:href="#DejaVuSans-111"/>
      <use x="135.986328" xlink:href="#DejaVuSans-110"/>
      <use x="199.365234" xlink:href="#DejaVuSans-45"/>
      <use x="235.449219" xlink:href="#DejaVuSans-72"/>
      <use x="310.644531" xlink:href="#DejaVuSans-111"/>
      <use x="371.826172" xlink:href="#DejaVuSans-115"/>
      <use x="423.925781" xlink:href="#DejaVuSans-116"/>
      <use x="463.134766" xlink:href="#DejaVuSans-105"/>
      <use x="490.917969" xlink:href="#DejaVuSans-110"/>
      <use x="554.296875" xlink:href="#DejaVuSans-103"/>
      <use x="617.773438" xlink:href="#DejaVuSans-32"/>
      <use x="649.560547" xlink:href="#DejaVuSans-80"/>
      <use x="709.800781" xlink:href="#DejaVuSans-97"/>
      <use x="771.080078" xlink:href="#DejaVuSans-114"/>
      <use x="812.193359" xlink:href="#DejaVuSans-116"/>
      <use x="851.402344" xlink:href="#DejaVuSans-110"/>
      <use x="914.78125" xlink:href="#DejaVuSans-101"/>
      <use x="976.304688" xlink:href="#DejaVuSans-114"/>
     </g>
    </g>
    <g id="line2d_5">
     <path d="M 275.979375 83.926688 
L 295.979375 83.926688 
" style="fill:none;stroke:#ffffff;stroke-linecap:square;stroke-width:1.5;"/>
    </g>
    <g id="line2d_6">
     <defs>
      <path d="M 0 7.5 
C 1.989023 7.5 3.896849 6.709753 5.303301 5.303301 
C 6.709753 3.896849 7.5 1.989023 7.5 0 
C 7.5 -1.989023 6.709753 -3.896849 5.303301 -5.303301 
C 3.896849 -6.709753 1.989023 -7.5 0 -7.5 
C -1.989023 -7.5 -3.896849 -6.709753 -5.303301 -5.303301 
C -6.709753 -3.896849 -7.5 -1.989023 -7.5 0 
C -7.5 1.989023 -6.709753 3.896849 -5.303301 5.303301 
C -3.896849 6.709753 -1.989023 7.5 0 7.5 
z
" id="m0cef8c533b" style="stroke:#ffffff;"/>
     </defs>
     <g>
      <use style="fill:#0000ff;stroke:#ffffff;" x="285.979375" xlink:href="#m0cef8c533b" y="83.926688"/>
     </g>
    </g>
    <g id="text_9">
     <!-- University -->
     <defs>
      <path d="M 2.984375 54.6875 
L 12.5 54.6875 
L 29.59375 8.796875 
L 46.6875 54.6875 
L 56.203125 54.6875 
L 35.6875 0 
L 23.484375 0 
z
" id="DejaVuSans-118"/>
      <path d="M 32.171875 -5.078125 
Q 28.375 -14.84375 24.75 -17.8125 
Q 21.140625 -20.796875 15.09375 -20.796875 
L 7.90625 -20.796875 
L 7.90625 -13.28125 
L 13.1875 -13.28125 
Q 16.890625 -13.28125 18.9375 -11.515625 
Q 21 -9.765625 23.484375 -3.21875 
L 25.09375 0.875 
L 2.984375 54.6875 
L 12.5 54.6875 
L 29.59375 11.921875 
L 46.6875 54.6875 
L 56.203125 54.6875 
z
" id="DejaVuSans-121"/>
     </defs>
     <g transform="translate(303.979375 87.426688)scale(0.1 -0.1)">
      <use xlink:href="#DejaVuSans-85"/>
      <use x="73.193359" xlink:href="#DejaVuSans-110"/>
      <use x="136.572266" xlink:href="#DejaVuSans-105"/>
      <use x="164.355469" xlink:href="#DejaVuSans-118"/>
      <use x="223.535156" xlink:href="#DejaVuSans-101"/>
      <use x="285.058594" xlink:href="#DejaVuSans-114"/>
      <use x="326.171875" xlink:href="#DejaVuSans-115"/>
      <use x="378.271484" xlink:href="#DejaVuSans-105"/>
      <use x="406.054688" xlink:href="#DejaVuSans-116"/>
      <use x="445.263672" xlink:href="#DejaVuSans-121"/>
     </g>
    </g>
   </g>
  </g>
 </g>
 <defs>
  <clipPath id="p1565074bff">
   <rect height="266.112" width="357.12" x="57.6" y="41.472"/>
  </clipPath>
 </defs>
</svg>
